# xmcd
# 
# Track frame offsets:
#     150
#     13647
#     28377
#     48635
#     65127
#     82087
#     100197
#     113115
#     122472
# 
# Disc length: 1890
# 
# Revision: 9
# Processed by: cddbd v1.5.2PL0 Copyright (c) Steve Scherf et al.
# Submitted via: fre:ac v1.0.31
# 
DISCID=7a076009
DTITLE=P J Harvey - The B Sides
DYEAR=1995
DGENRE=Alternative
TTITLE0=Reeling (Four Track Version)
TTITLE1=Daddy
TTITLE2=Lying In The Sun
TTITLE3=Somebody's Down, Somebody's Name
TTITLE4=Darling Be Here
TTITLE5=Maniac
TTITLE6=One Time Too Many
TTITLE7=Harder (Studio Version)
TTITLE8=Goodnight
EXTD=CD2 Limited Edition of the 'To Bring You My Love' Album 2xCD
EXTT0=
EXTT1=
EXTT2=
EXTT3=
EXTT4=
EXTT5=
EXTT6=
EXTT7=
EXTT8=
PLAYORDER=
